<?xml version="1.0" encoding="utf-8"?>
<!-- Generator: Adobe Illustrator 27.0.0, SVG Export Plug-In . SVG Version: 6.00 Build 0)  -->
<svg version="1.1" id="Logo_Kopie" xmlns="http://www.w3.org/2000/svg" xmlns:xlink="http://www.w3.org/1999/xlink" x="0px" y="0px"
	 viewBox="0 0 4006.9 691.7" style="enable-background:new 0 0 4006.9 691.7;" xml:space="preserve">
<style type="text/css">
	.st0{fill:#0077ED;}
</style>
<path class="st0" d="M0,343.4c0,0.8,0,1.6,0,2.4c0,189.9,153.2,344.5,343.4,345.8l0.1-3.4l1.1-170l2.1-316.5L348.1,0
	C157.2-1.3,1.3,152.4,0,343.4z M193.9,382.4l1.2-180.2l151,0.9L344,517.9C260.3,517.1,193.4,456.5,193.9,382.4z"/>
<path class="st0" d="M334,571.2L334,571.2z"/>
<path class="st0" d="M499.5,202.8L498.3,384c-0.5,74.5-69.3,134.5-154.2,134.2l2.2-316.5L499.5,202.8z"/>
<path class="st0" d="M3885,143.8h-21.8v-11.5h58.1v11.5h-21.8v66.7H3885V143.8z"/>
<path class="st0" d="M3927.6,132.3h19.4l20.5,53.3l20.1-53.3h19.2v78.1h-14.5v-59l-23.3,59h-4.7l-23.7-59v59h-13.1L3927.6,132.3z"/>
<path class="st0" d="M777.3,357.3v-4.6c0-96.3,68.4-157.2,153.1-157.2c67.3,0,130.5,30.2,138.6,113.7h-67.9
	c-5.8-40.6-32.5-57.4-69.6-57.4c-48.1,0-82.4,37.1-82.4,99.8v4.6c0,66.1,32.5,100.9,84.1,100.9c37.1,0,69-22,73.1-65h64.4
	c-5.2,69.6-58,118.9-140.4,118.9C843.4,511,777.3,454.2,777.3,357.3z"/>
<path class="st0" d="M1087.8,356.8v-4.6c0-94,66.7-156.6,156-156.6c88.7,0,155.4,62.1,155.4,154.9v4.6c0,94.5-66.7,156-156,156
	S1087.8,449,1087.8,356.8z M1327.4,355.6v-4.1c0-62.6-31.3-100.9-83.5-100.9s-84.1,37.7-84.1,100.3v4.6c0,62,30.7,100.9,84.1,100.9
	C1296,456.5,1327.4,417.6,1327.4,355.6z"/>
<path class="st0" d="M1424.2,201.9h70.2v46.4c14.5-28.4,47.6-52.8,92.2-52.8c39.4,0,70.8,16.8,85.8,54.5
	c23.2-37.7,65-54.5,102.7-54.5c55.7,0,100.9,34.2,100.9,117.7v192h-70.2V317.9c0-44.7-19.1-63.8-53.9-63.8s-66.7,23.2-66.7,69.6
	v181.5H1615V317.9c0-44.7-19.7-63.8-53.9-63.8c-34.8,0-66.7,23.2-66.7,69.6v181.5h-70.2L1424.2,201.9z"/>
<path class="st0" d="M1924.4,201.9h70.2v48.7c16.8-29,54.5-55.1,99.2-55.1c76,0,134.6,56.3,134.6,154.3v4.6
	c0,97.4-56.3,156.6-134.6,156.6c-48.1,0-82.9-23.8-99.2-53.4V609h-70.2L1924.4,201.9L1924.4,201.9z M2156.4,355.6V351
	c0-67.3-34.8-100.3-80.6-100.3c-48.7,0-83.5,33.1-83.5,100.3v4.6c0,67.9,33.1,99.8,84.1,99.8C2128,455.4,2156.4,420.6,2156.4,355.6z
	"/>
<path class="st0" d="M2245.8,356.8v-4.6c0-94,64.4-156.6,150.8-156.6c75.4,0,143.3,44.7,143.3,153.1V369h-222.1
	c2.3,57.4,31.3,89.9,83.5,89.9c42.3,0,64.4-16.8,69.6-46.4h67.9c-9.9,63.8-61.5,98.6-139.2,98.6
	C2310.2,511,2245.8,452.5,2245.8,356.8z M2470.2,322c-3.5-52.2-30.2-75.4-73.7-75.4c-42.3,0-70.8,28.4-77.7,75.4H2470.2z"/>
<path class="st0" d="M2571.7,201.9h70.2V250c14.5-29.6,48.1-54.5,98-54.5c60.9,0,103.8,35.4,103.8,118.9v190.9h-70.2V320.8
	c0-45.8-18.6-66.7-60.3-66.7c-39.4,0-71.3,24.4-71.3,72.5v178.6h-70.2V201.9z"/>
<path class="st0" d="M2907,420.6V254.7h-40.6v-52.8h40.6v-66.7h70.2v66.7h66.7v52.8h-66.7v159.5c0,26.7,12.8,38.9,34.8,38.9
	c13.9,0,24.4-1.7,34.2-5.8V503c-11,4.1-26.1,7.5-47.6,7.5C2938.3,510.5,2907,478,2907,420.6z"/>
<path class="st0" d="M3077.5,396.2V201.9h70.2v186.2c0,45.8,19.1,66.7,59.7,66.7c37.7,0,70.8-24.4,70.8-72.5V201.9h70.2v303.3h-70.2
	v-47.6c-15.1,29.6-47,53.4-96.3,53.4C3122.1,511,3077.5,476.8,3077.5,396.2z"/>
<path class="st0" d="M3395.5,201.9h70.2v46.4c14.5-28.4,47.6-52.8,92.2-52.8c39.4,0,70.8,16.8,85.8,54.5
	c23.2-37.7,65-54.5,102.7-54.5c55.7,0,100.9,34.2,100.9,117.7v192h-70.2V317.9c0-44.7-19.1-63.8-53.9-63.8s-66.7,23.2-66.7,69.6
	v181.5h-70.2V317.9c0-44.7-19.7-63.8-53.9-63.8c-34.8,0-66.7,23.2-66.7,69.6v181.5h-70.2L3395.5,201.9z"/>
</svg>
